<svg width="66" height="22" viewBox="0 0 66 22" fill="none" xmlns="http://www.w3.org/2000/svg">
<path d="M16.6486 21.5942L14.8226 17.1015H6.36956L4.54354 21.5942H0.050293L8.61618 1.41309H12.6683L21.2342 21.5942H16.6486ZM10.5961 6.71795L7.93912 13.2154H13.253L10.5961 6.71795Z" fill="#F9F9F9"/>
<path d="M29.6443 9.93539C28.7826 10.0793 28.4954 10.1924 27.9312 10.5831C27.5926 10.8195 27.3567 11.0868 27.1413 11.5803C27.0694 11.8682 26.9976 12.0121 26.9258 12.5775C26.8779 13.1053 26.854 14.219 26.854 15.9188V21.5835H22.5146V6.25488H26.854V8.29047C27.2849 7.71475 27.5721 7.22127 28.639 6.71752C29.6341 6.35769 30.9985 6.28572 31.7063 6.50162V10.0074C31.7063 10.0074 30.424 9.86342 29.6443 9.93539Z" fill="#F9F9F9"/>
<path d="M49.5596 6.25684H45.2202V21.5957H49.5596V6.25684Z" fill="#F9F9F9"/>
<path d="M65.9183 14.9023C65.9081 15.0565 65.8978 15.2415 65.8773 15.4471L54.993 15.4574C55.1776 16.3724 55.6906 17.1846 56.4189 17.75C56.9934 18.1818 57.7012 18.3977 58.563 18.3977C59.2913 18.3977 60.348 18.2127 60.9224 17.9659C61.4969 17.7192 62.1022 17.3079 62.7074 16.7528L65.1592 19.0968C64.4309 19.9912 63.4871 20.7006 62.4612 21.2043C61.4354 21.7081 60.2248 21.9446 58.8297 21.9446C57.7423 21.9548 56.6651 21.7595 55.6495 21.3688C54.6955 21.009 53.8338 20.4539 53.1054 19.7342C52.3873 19.0248 51.8128 18.1715 51.4333 17.2257C51.0332 16.2593 50.8383 15.1901 50.8383 14.0078V13.9461C50.828 12.8872 51.0229 11.8386 51.3922 10.8516C51.741 9.90581 52.2745 9.04223 52.9515 8.30202C53.6183 7.57208 54.4288 6.98608 55.3315 6.58513C56.2548 6.16362 57.2806 5.95801 58.3988 5.95801C59.6709 5.95801 60.7788 6.18418 61.7123 6.64682C62.6459 7.10945 63.4973 7.71601 64.1128 8.49735C64.7386 9.28897 65.2002 10.1937 65.4875 11.1601C65.785 12.1779 65.9389 13.2368 65.9286 14.2957V14.3574C65.9286 14.563 65.9286 14.748 65.9183 14.9023ZM60.6044 10.3684C60.0505 9.77216 59.3221 9.46374 58.4091 9.46374C57.4961 9.46374 56.778 9.73104 56.1419 10.2965C55.5367 10.8414 55.1674 11.304 55.0032 12.3012L61.5687 12.2293C61.4251 11.2526 61.1584 10.9647 60.6044 10.3684Z" fill="#F9F9F9"/>
<path d="M49.8479 2.49318C49.8479 3.83995 48.7605 4.92971 47.4166 4.92971C46.0728 4.92971 44.9854 3.83995 44.9854 2.49318C44.9854 1.1464 46.1446 0.0566406 47.4884 0.0566406C48.8426 0.0669214 49.8479 1.15668 49.8479 2.49318Z" fill="#F9F9F9"/>
<path d="M42.2132 21.605H40.2128C39.546 21.605 39.0023 21.605 38.5714 21.533C38.0175 21.4405 37.5353 21.2554 37.1455 20.8853C36.7249 20.4844 36.4069 20.0012 36.2222 19.4563C36.0068 18.8703 35.9658 18.1404 35.9658 17.2459V9.97746H32.8677V6.25583H35.9555V2.33887H40.2949V6.25583H43.8956V9.97746H40.2949L40.2846 15.9506C40.2846 16.8758 40.7873 17.3076 41.6387 17.3076H43.8546V21.605H42.2132Z" fill="#F9F9F9"/>
</svg>
