<?xml version="1.0" encoding="UTF-8"?>
<!-- Generated by Pixelmator Pro 3.5 -->
<svg width="250" height="250" viewBox="0 0 250 250" xmlns="http://www.w3.org/2000/svg">
    <g id="g8">
        <g id="g10">
            <path id="path12" fill="#6a5e50" stroke="none" d="M 173.933075 26.836227 C 172.64624 37.657867 159.454575 48.807922 150.960953 57.241714 C 153.954666 60.278702 156.69252 63.567719 159.137634 67.078171 C 165.555267 58.331253 180.833099 45.190491 173.933075 26.836227 Z M 154.978027 19.709625 C 154.969116 29.285156 145.757599 38.5616 138.471893 47.025955 C 141.820724 49.213943 144.988815 51.662888 147.940506 54.343491 C 153.585526 45.639801 160.746506 34.656509 154.978027 19.709625 Z M 129.71225 14.891953 C 131.639328 22.362228 127.744438 31.147339 123.586098 39.520035 C 127.030373 40.79924 130.357574 42.3228 133.540939 44.072952 C 136.002594 35.412598 137.205429 25.341919 129.71225 14.891953 Z M 109.477989 15.645477 C 111.682549 21.433044 110.251877 28.47821 107.939133 35.578033 C 111.11232 36.022263 114.219299 36.662506 117.252464 37.488571 C 117.522308 30.402695 115.978371 22.856064 109.477989 15.645477 Z M 99.416237 34.876724 C 98.358498 29.860474 95.959213 24.811172 91.180984 20.052017 C 93.114433 24.401306 92.940063 29.605911 91.883598 35.05365 C 93.719032 34.921265 95.574806 34.852539 97.440796 34.852539 C 98.102669 34.852539 98.760719 34.861465 99.416237 34.876724 Z M 73.013817 27.139175 C 75.241287 30.005615 76.400833 33.653549 76.950699 37.680771 C 79.127243 37.066025 81.344536 36.545425 83.594887 36.125381 C 80.953758 32.883484 77.501839 29.833771 73.013817 27.139175 Z M 96.426346 234.819962 C 49.681496 222.696228 15.163991 180.223007 15.158521 129.685089 C 15.158521 108.311676 21.087133 87.9552 31.993288 71.572556 L 31.998249 71.564896 C 37.591213 63.413681 45.911354 55.38974 57.876007 50.970459 C 77.358009 43.772568 92.20945 47.633102 98.940193 49.329742 C 105.639122 51.017532 116.775154 57.250595 117.536308 64.594879 C 103.05909 65.919907 88.606049 67.243637 74.151741 68.569946 C 80.305885 70.343002 86.460052 72.114777 92.616745 73.887833 C 92.679115 70.857224 95.182785 68.432465 98.247765 68.432465 C 101.314041 68.432465 103.858437 70.948883 103.858437 74.0215 C 103.858437 75.079224 103.559296 76.069473 103.05909 76.919724 C 104.600494 77.369034 106.135536 77.814529 107.69857 78.240952 C 109.129227 74.941742 110.578995 71.620941 112.030029 68.296265 C 150.607101 72.743546 163.870056 93.549347 145.126282 117.436615 C 145.774155 112.207794 143.640884 108.801682 140.701904 106.212769 C 126.522514 93.695709 98.629623 102.185501 94.221786 122.687057 C 90.228912 141.255157 104.452835 165.926514 135.293625 162.838623 C 147.273544 161.6409 154.909286 157.049774 163.264175 146.13649 C 182.489075 121.038757 168.501892 83.856659 168.501892 83.856659 L 167.660553 81.916885 C 165.765289 77.607086 163.479294 73.518723 160.849609 69.686234 C 170.02037 61.527328 187.894791 48.862625 190.850327 37.080017 C 199.364319 59.264236 178.582733 69.063812 171.601242 78.034714 C 169.190506 81.130264 173.000092 80.133621 173.000092 80.133621 C 183.637177 74.016388 202.650772 64.312286 207.940659 53.382477 C 213.530975 78.538773 184.881989 86.710403 177.904312 94.472137 C 177.904312 94.472137 177.760483 95.654572 181.186951 94.72287 C 192.782471 90.703262 214.250122 83.471008 221.495087 73.724915 C 222.277878 99.480713 193.483826 101.864746 185.17984 108.184387 C 185.17984 108.184387 184.783981 109.02063 187.274933 108.931534 C 199.394852 107.001923 221.282532 101.080688 230.121063 92.748718 C 226.391708 118.249954 201.003723 116.579987 191.715836 121.350586 C 190.720505 122.483391 196.084229 122.053185 193.366714 122.127007 C 208.540192 121.726059 220.890488 122.370125 235.262085 114.58165 C 235.262085 114.58165 235.915009 124.10627 221.141266 130.018616 C 217.091095 131.636353 210.221588 134.650421 198.108002 135.701782 C 197.435989 135.760345 196.677338 135.697968 195.981125 135.643234 C 195.002319 135.565598 193.915314 136.263092 195.689621 136.767151 C 196.130051 136.891907 196.841537 136.972076 198.081284 137.147705 C 211.328964 139.037888 223.970764 141.536469 235.006241 140.287842 C 235.006241 140.287842 235.305313 144.101227 232.172897 146.251038 C 224.089127 151.80954 211.32515 149.1633 199.29303 149.912994 C 198.568787 149.95752 196.677338 149.98938 196.632828 150.525208 C 196.604828 150.774673 198.682053 151.353836 199.737259 151.701309 C 210.052307 155.098511 219.79332 158.426971 230.271301 161.788544 C 229.750702 163.515762 229.435043 164.942627 227.030655 166.398727 C 220.777222 170.187988 207.8172 166.262558 197.318848 165.274841 C 196.88739 165.2341 195.661621 165.026627 195.483444 164.997345 C 194.12532 164.78479 195.232697 165.538284 196.160614 166.158173 C 196.558975 166.424194 196.174591 166.150543 196.653152 166.405106 C 205.018234 170.914764 214.399017 174.943283 222.689011 179.426208 C 221.299072 182.568848 218.762299 186.244797 217.131821 188.640259 C 217.131821 188.640259 200.148376 182.481003 191.238525 178.979431 C 198.436417 184.639755 204.890945 189.9729 212.086304 195.603943 C 209.872849 198.253983 208.262695 200.575638 205.433167 203.304565 C 205.433167 203.304565 191.787125 195.731216 185.307129 191.892349 C 190.073898 197.393539 195.139786 203.221863 199.975266 208.724304 C 197.222122 210.970886 195.041763 213.265778 192.06459 215.26796 C 192.06459 215.26796 181.53952 207.342041 176.919159 203.771729 C 179.868317 208.533401 183.70462 214.480057 186.671616 219.216278 C 183.76445 221.193008 181.073685 222.834961 177.892868 224.608017 C 177.892868 224.608017 170.2724 217.00029 167.040665 213.743088 C 168.970276 217.692719 173.544876 226.853287 173.544876 226.853287 C 169.349594 229.023483 166.222244 230.116867 162.361755 231.620071 C 160.715958 229.14949 157.561859 224.369995 155.937729 221.877808 C 156.45578 224.707306 158.655243 229.960312 159.193649 232.788528 C 155.619522 233.81955 148.258713 235.590042 148.258713 235.590042 L 143.666336 228.323425 C 143.815247 229.98703 144.711334 236.391922 144.711334 236.391922 C 125.775375 239.234177 114.112381 238.4552 96.426346 234.819962"/>
            <g id="g14">
                <clipPath id="clipPath1">
                    <path d="M -82.156189 492.188439 L 330.878691 492.188439 L 330.878691 13.347985 L -82.156189 13.347985 Z"/>
                </clipPath>
                <g id="g16" clip-path="url(#clipPath1)">
                    <clipPath id="clipPath2">
                        <path d="M 172.17275 25.265527 C 170.885922 36.085915 157.696799 47.237222 149.2019 55.669762 C 152.196876 58.706748 154.936022 61.997015 157.382411 65.507498 C 163.797485 56.759303 179.072785 43.619851 172.17275 25.265527 Z M 153.224057 18.138927 C 153.211341 27.714495 144.001099 36.990898 136.714121 45.455252 C 140.065495 47.643247 143.231029 50.092186 146.185278 52.772789 C 151.827762 44.069168 158.987458 33.085869 153.224057 18.138927 Z M 127.954455 13.321281 C 129.881537 20.791533 125.987943 29.574105 121.828307 37.94937 C 125.272599 39.228565 128.599792 40.752157 131.785691 42.501003 C 134.243544 33.841926 135.450184 23.769962 127.954455 13.321281 Z M 107.720216 14.074774 C 109.926026 19.862369 108.494087 26.907514 106.185161 34.006119 C 109.355794 34.450337 112.464068 35.09059 115.495956 35.917905 C 115.768348 28.83075 114.220577 21.284141 107.720216 14.074774 Z M 97.660998 33.306056 C 96.603271 28.288529 94.203974 23.240472 89.424478 18.480073 C 91.356644 22.830631 91.186085 28.035219 90.12964 33.482979 C 91.965055 33.349318 93.817032 33.280623 95.686823 33.280623 C 96.34744 33.280623 97.005479 33.288226 97.660998 33.306056 Z M 71.259868 25.56848 C 73.486057 28.434922 74.644321 32.082853 75.19419 36.110124 C 77.370736 35.495333 79.58801 34.972194 81.839661 34.553438 C 79.198533 31.311502 75.745326 28.263067 71.259868 25.56848 Z M 94.671106 233.249296 C 47.926255 221.124251 13.407358 178.652336 13.403411 128.114399 C 13.400862 106.739695 19.332024 86.384554 30.236138 70.001885 L 30.243138 69.994252 C 35.835077 61.843019 44.155732 53.819067 56.119483 49.398503 C 75.602778 42.200614 90.452927 46.063692 97.184952 47.757827 C 103.883882 49.445611 115.01991 55.679959 115.778515 63.02293 C 101.305113 64.347951 86.84954 65.672973 72.396502 66.997994 C 78.550647 68.772303 84.704807 70.544135 90.860249 72.317162 C 90.922607 69.285274 93.42754 66.861798 96.492537 66.861798 C 99.557519 66.861798 102.104461 69.376897 102.104461 72.450824 C 102.104461 73.50724 101.802805 74.496243 101.305113 75.349079 C 102.84397 75.798366 104.380292 76.241331 105.942062 76.668973 C 107.371452 73.36982 108.822488 70.050245 110.274776 66.725631 C 148.848052 71.171628 162.110983 91.979931 143.368493 115.865918 C 144.015097 110.635867 141.881828 107.231021 138.946661 104.639535 C 124.76474 92.125013 96.873114 100.614828 92.464013 121.116361 C 88.473683 139.684491 102.698888 164.354561 133.537116 161.267933 C 145.517042 160.070222 153.150235 155.480366 161.505121 144.565792 C 180.728756 119.466771 166.746665 82.284743 166.746665 82.284743 L 165.904025 80.346212 C 164.007504 76.035129 161.720238 71.945514 159.091827 68.114278 C 168.262594 59.955383 186.139576 47.289399 189.09129 35.510628 C 197.603974 57.692283 176.822416 67.491825 169.842179 76.462799 C 167.43018 79.559595 171.241052 78.561707 171.241052 78.561707 C 181.88064 72.445725 200.890454 62.741652 206.182907 51.811783 C 211.77572 76.968109 183.124206 85.138424 176.146533 92.90018 C 176.146533 92.90018 176.005268 94.082654 179.426662 93.150927 C 191.02344 89.133853 212.492331 81.899082 219.736046 72.152969 C 220.518817 97.910073 191.728572 100.294075 183.420779 106.613695 C 183.420779 106.613695 183.027485 107.449954 185.518434 107.360866 C 197.637069 105.431221 219.525998 99.509993 228.36331 91.178019 C 224.630078 116.676744 199.245962 115.009324 189.961867 119.778609 C 188.962726 120.91147 194.325157 120.482488 191.607671 120.555058 C 206.779869 120.155384 219.131451 120.798172 233.508118 113.009702 C 233.508118 113.009702 234.154722 122.535599 219.382198 128.44663 C 215.333311 130.064408 208.462526 133.078466 196.350241 134.131095 C 195.679457 134.189652 194.919584 134.127279 194.222084 134.072567 C 193.243249 133.994928 192.156243 134.691175 193.933145 135.195203 C 194.36973 135.31995 195.083747 135.398841 196.324779 135.577047 C 209.571177 137.467188 222.211699 139.965799 233.248456 138.717134 C 233.248456 138.717134 233.546311 142.529259 230.418926 144.680372 C 222.328784 150.237556 209.566079 147.591329 197.532715 148.342316 C 196.811007 148.38686 194.919584 148.417392 194.873758 148.954544 C 194.849577 149.204038 196.925586 149.783141 197.979468 150.130638 C 208.294516 153.527852 218.034249 156.85503 228.512237 160.217838 C 227.994197 161.945097 227.67726 163.371938 225.271613 164.828087 C 219.020688 168.617312 206.05816 164.69189 195.561061 163.702888 C 195.129603 163.663412 193.903866 163.454675 193.724378 163.425426 C 192.366262 163.214096 193.47235 163.967647 194.402825 164.586225 C 194.803751 164.852267 194.420625 164.578593 194.894122 164.834408 C 203.259219 169.34409 212.640005 173.372614 220.92994 177.856804 C 219.542574 180.996862 217.007082 184.674101 215.372757 187.069581 C 215.372757 187.069581 198.391873 180.910337 189.479485 177.40877 C 196.681161 183.067773 203.130656 188.402235 210.329768 194.033271 C 208.115058 196.683314 206.506195 199.003689 203.675382 201.732653 C 203.675382 201.732653 190.030621 194.15927 183.549343 190.322937 C 188.318657 195.821622 193.382009 201.649887 198.214949 207.152386 C 195.463087 209.398939 193.285258 211.695134 190.304295 213.696009 C 190.304295 213.696009 179.780481 205.771344 175.16391 202.19977 C 178.107991 206.962702 181.945578 212.908139 184.91381 217.644358 C 182.009204 219.622335 179.315899 221.264293 176.137647 223.036067 C 176.137647 223.036067 168.512088 215.42959 165.285447 212.172447 C 167.209965 216.120767 171.789624 225.281367 171.789624 225.281367 C 167.593091 227.452815 164.461919 228.54489 160.605221 230.048118 C 158.95818 227.578844 155.805376 222.799333 154.178684 220.304569 C 154.697992 223.135352 156.897466 228.38833 157.434588 231.217861 C 153.861747 232.248844 146.503482 234.019366 146.503482 234.019366 L 141.908557 226.751499 C 142.058752 228.415074 142.952286 234.821248 142.952286 234.821248 C 124.016317 237.663481 112.354601 236.883244 94.671106 233.249296 Z"/>
                    </clipPath>
                    <g id="g22" clip-path="url(#clipPath2)">
                        <path id="path28" fill="#fff766" stroke="none" d="M 123.462616 124.924698 L 22.350548 181.64093 C 22.815384 182.483566 23.296135 183.291809 23.782995 184.122955"/>
                        <path id="path30" fill="#fff766" stroke="none" d="M 123.462616 124.924698 L 22.350548 181.64093 C 22.815384 182.483566 23.296135 183.291809 23.782995 184.122955"/>
                        <path id="path32" fill="#fcf15e" stroke="none" d="M 123.462616 124.924698 L 23.782995 184.122955 C 24.270235 184.949036 24.768423 185.780182 25.278576 186.573151"/>
                        <path id="path34" fill="#fcf15e" stroke="none" d="M 123.462616 124.924698 L 20.979197 179.132172 C 21.424173 179.976074 21.878712 180.798309 22.350548 181.64093"/>
                        <path id="path36" fill="#fcec54" stroke="none" d="M 123.462616 124.924698 L 25.278576 186.573151 C 25.788219 187.377594 26.427563 188.462067 26.95261 189.235962"/>
                        <path id="path38" fill="#fcec54" stroke="none" d="M 123.462616 124.924698 L 19.668043 176.567444 C 20.092661 177.427887 20.536253 178.270462 20.979197 179.132172"/>
                        <path id="path40" fill="#f9e74d" stroke="none" d="M 123.462616 125.209824 L 26.832836 189.265228 C 27.362333 190.083664 27.898838 190.857544 28.449202 191.636505"/>
                        <path id="path42" fill="#f9e74d" stroke="none" d="M 123.462616 124.924698 L 18.419647 173.989929 C 18.826321 174.845276 19.250423 175.720978 19.668043 176.567444"/>
                        <path id="path44" fill="#f9e443" stroke="none" d="M 123.462616 124.924698 L 28.449202 191.365402 C 28.998051 192.141815 29.556448 192.905533 30.126293 193.680695"/>
                        <path id="path46" fill="#f9e443" stroke="none" d="M 123.462616 124.924698 L 17.243292 171.389511 C 17.622595 172.251221 18.021387 173.129501 18.419647 173.989929"/>
                        <path id="path48" fill="#f6df3d" stroke="none" d="M 123.462616 124.924698 L 30.126293 193.680695 C 30.688631 194.450775 31.2623 195.210648 31.849073 195.974335"/>
                        <path id="path50" fill="#f6df3d" stroke="none" d="M 123.462616 124.924698 L 16.125492 168.726761 C 16.485575 169.617737 16.858387 170.492188 17.243292 171.389511"/>
                        <path id="path52" fill="#f6da33" stroke="none" d="M 123.462616 124.924698 L 31.849073 195.974335 C 32.438271 196.734207 33.026958 197.482635 33.637402 198.214508"/>
                        <path id="path54" fill="#f6da33" stroke="none" d="M 123.462616 124.924698 L 15.071458 166.077972 C 15.409523 166.953705 15.764645 167.843414 16.125492 168.726761"/>
                        <path id="path56" fill="#f3d52d" stroke="none" d="M 123.462616 124.924698 L 33.637402 198.214508 C 34.232071 198.948944 34.849659 199.697372 35.474106 200.430527"/>
                        <path id="path58" fill="#f3d52d" stroke="none" d="M 123.462616 124.924698 L 14.08756 163.373215 C 14.406783 164.275665 14.731863 165.1539 15.071458 166.077972"/>
                        <path id="path60" fill="#f3d52d" stroke="none" d="M 123.462616 124.924698 L 35.474106 200.430527 C 36.094105 201.138245 36.727592 201.854828 37.370502 202.567627"/>
                        <path id="path62" fill="#f3d52d" stroke="none" d="M 123.462616 124.924698 L 13.176204 160.667145 C 13.467554 161.570892 13.771767 162.474609 14.08756 163.373215"/>
                        <path id="path64" fill="#f0d22b" stroke="none" d="M 123.462616 124.924698 L 37.370502 202.567627 C 38.010357 203.286774 38.658737 203.993195 39.315014 204.68306"/>
                        <path id="path66" fill="#f0d22b" stroke="none" d="M 123.462616 124.924698 L 12.322515 157.916565 C 12.592999 158.836853 12.878874 159.726532 13.176204 160.667145"/>
                        <path id="path68" fill="#edcd2a" stroke="none" d="M 123.462616 124.924698 L 39.315014 204.68306 C 39.973839 205.371674 40.643093 206.050079 41.312218 206.741241"/>
                        <path id="path70" fill="#edcd2a" stroke="none" d="M 123.462616 124.924698 L 11.545834 155.153259 C 11.791999 156.086243 12.052039 156.992508 12.322515 157.916565"/>
                        <path id="path72" fill="#ebca28" stroke="none" d="M 123.462616 124.924698 L 41.312218 206.741241 C 41.992413 207.417114 42.674152 208.078979 43.362766 208.742172"/>
                        <path id="path74" fill="#ebca28" stroke="none" d="M 123.462616 124.924698 L 10.828844 152.370834 C 11.046117 153.308914 11.288342 154.229187 11.545834 155.153259"/>
                        <path id="path76" fill="#e8c826" stroke="none" d="M 123.462616 124.924698 L 43.362766 208.742172 C 44.053391 209.402756 44.759308 210.050613 45.463318 210.699753"/>
                        <path id="path78" fill="#e8c826" stroke="none" d="M 123.462616 124.924698 L 10.18594 149.606247 C 10.3859 150.51886 10.599094 151.453125 10.828844 152.370834"/>
                        <path id="path80" fill="#e6c325" stroke="none" d="M 123.462616 124.924698 L 45.463318 210.699753 C 46.174831 211.32724 46.883793 211.973877 47.613136 212.596268"/>
                        <path id="path82" fill="#e6c325" stroke="none" d="M 123.462616 124.924698 L 9.61023 146.772888 C 9.791742 147.71225 9.975658 148.659241 10.18594 149.606247"/>
                        <path id="path84" fill="#e1bf24" stroke="none" d="M 123.462616 124.924698 L 47.613136 212.596268 C 48.331013 213.212341 49.065422 213.834778 49.801132 214.439362"/>
                        <path id="path86" fill="#e1bf24" stroke="none" d="M 123.462616 124.924698 L 9.097667 143.954865 C 9.261218 144.899307 9.434202 145.828461 9.61023 146.772888"/>
                        <path id="path88" fill="#debb23" stroke="none" d="M 123.462616 124.924698 L 49.801132 214.439362 C 50.535557 215.057938 51.282711 215.662537 52.034966 216.237854"/>
                        <path id="path90" fill="#debb23" stroke="none" d="M 123.462616 124.924698 L 8.668591 141.117706 C 8.79435 142.064697 8.940975 143.019333 9.097667 143.954865"/>
                        <path id="path92" fill="#dcb822" stroke="none" d="M 123.462616 124.924698 L 52.034966 216.237854 C 52.79229 216.832275 53.555996 217.413971 54.322247 217.979095"/>
                        <path id="path94" fill="#dcb822" stroke="none" d="M 123.462616 124.924698 L 8.301123 138.285645 C 8.411478 139.216064 8.53125 140.178345 8.668591 141.117706"/>
                        <path id="path96" fill="#d9b621" stroke="none" d="M 123.462616 124.924698 L 54.322247 217.979095 C 55.083401 218.554413 55.85474 219.119568 56.636257 219.664322"/>
                        <path id="path98" fill="#d9b621" stroke="none" d="M 123.462616 124.924698 L 8.001746 135.414124 C 8.094796 136.3815 8.189754 137.329773 8.301123 138.285645"/>
                        <path id="path100" fill="#d7b120" stroke="none" d="M 123.462616 124.924698 L 56.636257 219.664322 C 57.421593 220.214203 58.21204 220.739899 59.003742 221.27449"/>
                        <path id="path102" fill="#d7b120" stroke="none" d="M 123.462616 124.924698 L 7.782951 132.551544 C 7.844173 133.51889 7.917232 134.482407 8.001746 135.414124"/>
                        <path id="path104" fill="#d4af1e" stroke="none" d="M 123.462616 124.924698 L 59.003742 221.27449 C 59.797974 221.8078 60.597324 222.343643 61.403023 222.840057"/>
                        <path id="path106" fill="#d4af1e" stroke="none" d="M 123.462616 124.924698 L 7.625378 129.70546 C 7.66025 130.649918 7.715363 131.603271 7.782951 132.551544"/>
                        <path id="path108" fill="#d4af1e" stroke="none" d="M 123.462616 124.924698 L 61.403023 222.840057 C 62.211269 223.360641 63.030983 223.865952 63.846863 224.344543"/>
                        <path id="path110" fill="#d4af1e" stroke="none" d="M 123.462616 124.924698 L 7.541876 126.841583 C 7.556253 127.801308 7.583114 128.755936 7.625378 129.70546"/>
                        <path id="path112" fill="#d4b11e" stroke="none" d="M 123.462616 124.924698 L 63.846863 224.344543 C 64.671669 224.844788 65.490089 225.333542 66.318718 225.795593"/>
                        <path id="path114" fill="#d4b11e" stroke="none" d="M 123.462616 124.924698 L 7.533857 123.965004 C 7.533857 124.290855 7.52342 124.597595 7.52342 124.924698 C 7.52342 125.55732 7.533857 126.205147 7.541876 126.841583"/>
                        <path id="path116" fill="#d7b120" stroke="none" d="M 123.462616 124.924698 L 66.318718 225.795593 C 67.151154 226.267807 67.993767 226.729828 68.84021 227.18042"/>
                        <path id="path118" fill="#d7b120" stroke="none" d="M 123.462616 124.924698 L 7.588074 121.092178 C 7.556253 122.064636 7.541876 123.023079 7.533857 123.965004"/>
                        <path id="path120" fill="#d7b31f" stroke="none" d="M 123.462616 124.924698 L 68.84021 227.18042 C 69.675171 227.618256 70.527977 228.066299 71.384598 228.502914"/>
                        <path id="path122" fill="#d7b31f" stroke="none" d="M 123.462616 124.924698 L 7.72084 118.243591 C 7.66025 119.198227 7.625378 120.147751 7.588074 121.092178"/>
                        <path id="path124" fill="#d9b421" stroke="none" d="M 123.462616 124.924698 L 71.384598 228.502914 C 72.242493 228.929291 73.092735 229.364609 73.958275 229.756638"/>
                        <path id="path126" fill="#d9b421" stroke="none" d="M 123.462616 124.924698 L 7.9208 115.368271 C 7.844173 116.330521 7.775566 117.281342 7.72084 118.243591"/>
                        <path id="path128" fill="#d9b621" stroke="none" d="M 123.462616 124.924698 L 73.958275 229.756638 C 74.825066 230.169022 75.69442 230.559814 76.566307 230.946747"/>
                        <path id="path130" fill="#d9b621" stroke="none" d="M 123.462616 124.924698 L 8.192165 112.504395 C 8.094796 113.466644 7.998825 114.413635 7.9208 115.368271"/>
                        <path id="path132" fill="#d9b820" stroke="none" d="M 123.462616 124.924698 L 76.566307 230.946747 C 77.440742 231.33876 78.320282 231.714264 79.203621 232.070663"/>
                        <path id="path134" fill="#d9b820" stroke="none" d="M 123.462616 124.924698 L 8.533799 109.672333 C 8.411478 110.61676 8.293104 111.577759 8.192165 112.504395"/>
                        <path id="path136" fill="#dcb822" stroke="none" d="M 123.462616 124.924698 L 79.203621 232.070663 C 80.093323 232.433395 80.971588 232.788528 81.87149 233.139847"/>
                        <path id="path138" fill="#dcb822" stroke="none" d="M 123.462616 124.924698 L 8.940975 106.84407 C 8.79435 107.769455 8.663499 108.717697 8.533799 109.672333"/>
                        <path id="path140" fill="#dcba22" stroke="none" d="M 123.462616 124.924698 L 81.87149 233.139847 C 82.757378 233.480957 83.655998 233.813171 84.558441 234.128845"/>
                        <path id="path142" fill="#dcba22" stroke="none" d="M 123.462616 124.924698 L 9.434202 104.010757 C 9.261218 104.95137 9.097667 105.884354 8.940975 106.84407"/>
                        <path id="path144" fill="#debb23" stroke="none" d="M 123.462616 124.924698 L 84.558441 234.128845 C 85.454498 234.464844 86.364578 234.775421 87.274666 235.059265"/>
                        <path id="path146" fill="#debb23" stroke="none" d="M 123.462616 124.924698 L 9.981652 101.19014 C 9.791742 102.13588 9.60476 103.077744 9.434202 104.010757"/>
                        <path id="path148" fill="#debd23" stroke="none" d="M 123.462616 124.924698 L 87.274666 235.059265 C 88.175827 235.36731 89.088463 235.638428 90.008713 235.931152"/>
                        <path id="path150" fill="#debd23" stroke="none" d="M 123.462616 124.924698 L 10.606611 98.397552 C 10.3859 99.316513 10.180972 100.257156 9.981652 101.19014"/>
                        <path id="path152" fill="#e1bd25" stroke="none" d="M 123.462616 124.924698 L 90.008713 235.931152 C 90.922607 236.199722 91.837776 236.465775 92.760574 236.721588"/>
                        <path id="path154" fill="#e1bd25" stroke="none" d="M 123.462616 124.924698 L 11.29229 95.607498 C 11.046117 96.53923 10.828844 97.458191 10.606611 98.397552"/>
                        <path id="path156" fill="#e1bf24" stroke="none" d="M 123.462616 124.924698 L 92.760574 236.721588 C 93.683388 236.963425 94.603638 237.22818 95.54171 237.439484"/>
                        <path id="path158" fill="#e1bf24" stroke="none" d="M 123.462616 124.924698 L 12.052039 92.85817 C 11.791999 93.761902 11.536416 94.679581 11.29229 95.607498"/>
                        <path id="path160" fill="#e1c224" stroke="none" d="M 123.462616 124.924698 L 95.54171 237.439484 C 96.456894 237.667297 97.40007 237.891327 98.331787 238.101349"/>
                        <path id="path162" fill="#e1c224" stroke="none" d="M 123.462616 124.924698 L 12.878874 90.108871 C 12.592999 91.012543 12.322515 91.931534 12.052039 92.85817"/>
                        <path id="path164" fill="#e3c226" stroke="none" d="M 123.462616 124.924698 L 98.331787 238.101349 C 99.26223 238.316437 100.20031 238.50737 101.128189 238.67923"/>
                        <path id="path166" fill="#e3c226" stroke="none" d="M 123.462616 124.924698 L 13.775838 87.376083 C 13.467554 88.278503 13.164245 89.196228 12.878874 90.108871"/>
                        <path id="path168" fill="#e3c426" stroke="none" d="M 123.462616 124.924698 L 101.128189 238.67923 C 102.072647 238.863785 103.020897 239.049591 103.958977 239.21254"/>
                        <path id="path170" fill="#e3c426" stroke="none" d="M 123.462616 124.924698 L 14.738359 84.682755 C 14.406783 85.57373 14.08756 86.46344 13.775838 87.376083"/>
                        <path id="path172" fill="#e6c527" stroke="none" d="M 123.462616 124.924698 L 103.958977 239.21254 C 104.898331 239.356369 105.844063 239.514206 106.783409 239.65419"/>
                        <path id="path174" fill="#e6c527" stroke="none" d="M 123.462616 124.924698 L 15.767056 82.004684 C 15.409523 82.881699 15.071458 83.784119 14.738359 84.682755"/>
                        <path id="path176" fill="#e6c727" stroke="none" d="M 123.462616 124.924698 L 106.783409 239.65419 C 107.734215 239.782745 108.679924 239.918945 109.632004 240.018234"/>
                        <path id="path178" fill="#e6c727" stroke="none" d="M 123.462616 124.924698 L 16.858387 79.341949 C 16.485575 80.231659 16.118616 81.107361 15.767056 82.004684"/>
                        <path id="path180" fill="#e6c727" stroke="none" d="M 123.462616 124.924698 L 109.632004 240.018234 C 110.580261 240.145508 111.52726 240.24733 112.48188 240.33136"/>
                        <path id="path182" fill="#e6c727" stroke="none" d="M 123.462616 124.924698 L 18.021387 76.722427 C 17.622595 77.58287 17.243292 78.459854 16.858387 79.341949"/>
                        <path id="path184" fill="#e8ca2b" stroke="none" d="M 123.462616 124.924698 L 112.48188 240.33136 C 113.430145 240.430634 114.38987 240.501923 115.347046 240.566833"/>
                        <path id="path186" fill="#e8ca2b" stroke="none" d="M 123.462616 124.924698 L 19.250423 74.128403 C 18.826321 74.974838 18.415197 75.860703 18.021387 76.722427"/>
                        <path id="path188" fill="#e9cc2d" stroke="none" d="M 123.462616 124.924698 L 115.347046 240.566833 C 116.291473 240.63681 117.246101 240.694122 118.203278 240.738663"/>
                        <path id="path190" fill="#e9cc2d" stroke="none" d="M 123.462616 124.924698 L 20.536253 71.564896 C 20.092661 72.420258 19.664095 73.266693 19.250423 74.128403"/>
                        <path id="path192" fill="#ebcf31" stroke="none" d="M 123.462616 124.924698 L 118.203278 240.738663 C 119.163002 240.78067 120.111259 240.823929 121.07225 240.839233"/>
                        <path id="path194" fill="#ebcf31" stroke="none" d="M 123.462616 124.924698 L 21.883162 69.038345 C 21.424173 69.887299 20.979197 70.718491 20.536253 71.564896"/>
                        <path id="path196" fill="#ebd135" stroke="none" d="M 123.462616 124.924698 L 121.07225 240.839233 C 121.869049 240.851929 122.6633 240.864655 123.462616 240.864655 C 123.621727 240.864655 123.777023 240.864655 123.939934 240.864655"/>
                        <path id="path198" fill="#ebd135" stroke="none" d="M 123.462616 124.924698 L 23.302114 66.546112 C 22.815384 67.363312 22.343548 68.198273 21.883162 69.038345"/>
                        <path id="path200" fill="#eed437" stroke="none" d="M 123.462616 124.924698 L 123.939934 240.864655 C 124.884392 240.851929 125.856834 240.839233 126.801277 240.807388"/>
                        <path id="path202" fill="#eed437" stroke="none" d="M 123.462616 124.924698 L 24.77339 64.083221 C 24.270235 64.887604 23.782995 65.727707 23.302114 66.546112"/>
                        <path id="path204" fill="#eed63c" stroke="none" d="M 123.462616 124.924698 L 126.801277 240.807388 C 127.766083 240.78067 128.716888 240.738663 129.672791 240.694122"/>
                        <path id="path206" fill="#eed63c" stroke="none" d="M 123.462616 124.924698 L 26.307789 61.667374 C 25.788219 62.471786 25.278576 63.274963 24.77339 64.083221"/>
                        <path id="path208" fill="#f1d940" stroke="none" d="M 123.462616 124.924698 L 129.672791 240.694122 C 130.632507 240.63681 131.580765 240.578278 132.529037 240.501923"/>
                        <path id="path210" fill="#f1d940" stroke="none" d="M 123.462616 124.924698 L 27.898838 59.273148 C 27.362333 60.066147 26.832836 60.874374 26.307789 61.667374"/>
                        <path id="path212" fill="#f1db42" stroke="none" d="M 123.462616 124.924698 L 132.529037 240.501923 C 133.48494 240.430634 134.437012 240.346619 135.391647 240.24733"/>
                        <path id="path214" fill="#f1db42" stroke="none" d="M 123.462616 124.924698 L 29.558989 56.932404 C 28.998051 57.707581 28.449202 58.499268 27.898838 59.273148"/>
                        <path id="path216" fill="#f4e146" stroke="none" d="M 123.462616 124.924698 L 135.391647 240.24733 C 136.346268 240.145508 137.286896 240.018234 138.23642 239.903687"/>
                        <path id="path218" fill="#f4e146" stroke="none" d="M 123.462616 124.924698 L 31.267771 54.638748 C 30.688631 55.387207 30.126293 56.167435 29.558989 56.932404"/>
                        <path id="path220" fill="#f4e349" stroke="none" d="M 123.462616 124.924698 L 138.23642 239.903687 C 139.179596 239.782745 140.13295 239.65419 141.081207 239.514206"/>
                        <path id="path222" fill="#f4e349" stroke="none" d="M 123.462616 124.924698 L 33.031918 52.380753 C 32.438271 53.115158 31.846525 53.876312 31.267771 54.638748"/>
                        <path id="path224" fill="#f6e64e" stroke="none" d="M 123.462616 124.924698 L 141.081207 239.514206 C 142.020554 239.356369 142.968811 239.21254 143.90181 239.035614"/>
                        <path id="path226" fill="#f6e64e" stroke="none" d="M 123.462616 124.924698 L 34.854626 50.151993 C 34.232071 50.885147 33.634991 51.617035 33.031918 52.380753"/>
                        <path id="path228" fill="#f7e952" stroke="none" d="M 123.462616 124.924698 L 143.90181 239.035614 C 144.855164 238.863785 145.78688 238.67923 146.721146 238.495926"/>
                        <path id="path230" fill="#f7e952" stroke="none" d="M 123.462616 124.924698 L 36.731541 47.994553 C 36.094105 48.71373 35.474106 49.434128 34.854626 50.151993"/>
                        <path id="path232" fill="#f9ec55" stroke="none" d="M 123.462616 124.924698 L 146.721146 238.495926 C 147.664307 238.316437 148.593475 238.101349 149.513733 237.891327"/>
                        <path id="path234" fill="#f9ec55" stroke="none" d="M 123.462616 124.924698 L 38.658737 45.870224 C 38.010357 46.562622 37.370502 47.267776 36.731541 47.994553"/>
                        <path id="path236" fill="#f9ee5a" stroke="none" d="M 123.462616 124.924698 L 149.513733 237.891327 C 150.453094 237.667297 151.386078 237.439484 152.308868 237.211624"/>
                        <path id="path238" fill="#f9ee5a" stroke="none" d="M 123.462616 124.924698 L 40.643093 43.801849 C 39.973839 44.479004 39.310566 45.168869 38.658737 45.870224"/>
                        <path id="path240" fill="#fcf15e" stroke="none" d="M 123.462616 124.924698 L 152.308868 237.211624 C 153.231689 236.963425 154.145584 236.721588 155.070938 236.444122"/>
                        <path id="path242" fill="#fcf15e" stroke="none" d="M 123.462616 124.924698 L 42.679119 41.770401 C 41.992413 42.433563 41.312218 43.110687 40.643093 43.801849"/>
                        <path id="path244" fill="#fcf461" stroke="none" d="M 123.462616 124.924698 L 155.070938 236.444122 C 155.99884 236.199722 156.91272 235.943878 157.840622 235.638428"/>
                        <path id="path246" fill="#fcf461" stroke="none" d="M 123.462616 124.924698 L 44.759308 39.798782 C 44.053391 40.44664 43.362766 41.108536 42.679119 41.770401"/>
                        <path id="path248" fill="#fff766" stroke="none" d="M 123.462616 124.924698 L 157.840622 235.638428 C 158.739243 235.36731 159.646774 235.059265 160.558121 234.775421"/>
                        <path id="path250" fill="#fff766" stroke="none" d="M 123.462616 124.924698 L 46.883793 37.890808 C 46.174831 38.509384 45.458221 39.149643 44.759308 39.798782"/>
                        <path id="path252" fill="#fff766" stroke="none" d="M 123.462616 124.924698 L 160.558121 234.775421 C 161.460556 234.464844 162.350281 234.156845 163.264175 233.813171"/>
                        <path id="path254" fill="#fff766" stroke="none" d="M 123.462616 124.924698 L 49.065422 36.003174 C 48.331013 36.637054 47.605488 37.255661 46.883793 37.890808"/>
                        <path id="path256" fill="#fcf461" stroke="none" d="M 123.462616 124.924698 L 163.264175 233.813171 C 164.171722 233.480957 165.042328 233.153824 165.940964 232.775803"/>
                        <path id="path258" fill="#fcf461" stroke="none" d="M 123.462616 124.924698 L 51.286545 34.18811 C 50.535557 34.790176 49.796047 35.397324 49.065422 36.003174"/>
                        <path id="path260" fill="#fcf15c" stroke="none" d="M 123.462616 124.924698 L 165.940964 232.775803 C 166.831924 232.433395 167.712738 232.070663 168.599915 231.714264"/>
                        <path id="path262" fill="#fcf15c" stroke="none" d="M 123.462616 124.924698 L 53.555996 32.449432 C 52.79229 33.019684 52.029869 33.61026 51.286545 34.18811"/>
                        <path id="path264" fill="#f9ee5a" stroke="none" d="M 123.462616 124.924698 L 168.599915 231.714264 C 169.480698 231.33876 170.357681 230.946747 171.228287 230.559814"/>
                        <path id="path266" fill="#f9ee5a" stroke="none" d="M 123.462616 124.924698 L 55.85474 30.732391 C 55.083401 31.294983 54.315868 31.874115 53.555996 32.449432"/>
                        <path id="path268" fill="#f9ec55" stroke="none" d="M 123.462616 124.924698 L 171.228287 230.559814 C 172.100204 230.169022 172.961899 229.771942 173.824875 229.350616"/>
                        <path id="path270" fill="#f9ec55" stroke="none" d="M 123.462616 124.924698 L 58.21204 29.094223 C 57.421593 29.636475 56.636257 30.183792 55.85474 30.732391"/>
                        <path id="path272" fill="#f6e650" stroke="none" d="M 123.462616 124.924698 L 173.824875 229.350616 C 174.678955 228.929291 175.536865 228.502914 176.388351 228.066299"/>
                        <path id="path274" fill="#f6e650" stroke="none" d="M 123.462616 124.924698 L 60.606224 27.507004 C 59.797974 28.027618 58.996094 28.560913 58.21204 29.094223"/>
                        <path id="path276" fill="#f6e44b" stroke="none" d="M 123.462616 124.924698 L 176.388351 228.066299 C 177.236099 227.618256 178.088867 227.194427 178.939148 226.713303"/>
                        <path id="path278" fill="#f6e44b" stroke="none" d="M 123.462616 124.924698 L 63.030983 25.980881 C 62.211269 26.486191 61.403023 27.008087 60.606224 27.507004"/>
                        <path id="path280" fill="#f4e149" stroke="none" d="M 123.462616 124.924698 L 178.923843 226.713303 C 179.771591 226.267807 180.606537 225.795593 181.431351 225.320816"/>
                        <path id="path282" fill="#f4e149" stroke="none" d="M 123.462616 124.924698 L 65.490089 24.515854 C 64.671669 24.993164 63.84306 25.492126 63.030983 25.980881"/>
                        <path id="path284" fill="#f3de44" stroke="none" d="M 123.462616 124.924698 L 181.431351 225.320816 C 182.26886 224.844788 183.082214 224.344543 183.889175 223.865952"/>
                        <path id="path286" fill="#f3de44" stroke="none" d="M 123.462616 124.924698 L 67.993767 23.122101 C 67.151154 23.584122 66.318718 24.053833 65.490089 24.515854"/>
                        <path id="path288" fill="#f1db40" stroke="none" d="M 123.462616 124.924698 L 183.889175 223.865952 C 184.708908 223.360641 185.518433 222.85405 186.322845 222.330933"/>
                        <path id="path290" fill="#f1db40" stroke="none" d="M 123.462616 124.924698 L 70.527977 21.781815 C 69.675171 22.228577 68.831276 22.657486 67.993767 23.122101"/>
                        <path id="path292" fill="#f1d93b" stroke="none" d="M 123.462616 124.924698 L 186.322845 222.330933 C 187.127289 221.8078 187.927887 221.27449 188.709412 220.739899"/>
                        <path id="path294" fill="#f1d93b" stroke="none" d="M 123.462616 124.924698 L 73.092735 20.500061 C 72.242493 20.904831 71.379501 21.347794 70.527977 21.781815"/>
                        <path id="path296" fill="#eed63a" stroke="none" d="M 123.462616 124.924698 L 188.709412 220.739899 C 189.496033 220.214203 190.294098 219.664322 191.065445 219.119568"/>
                        <path id="path298" fill="#eed63a" stroke="none" d="M 123.462616 124.924698 L 75.702049 19.289581 C 74.825066 19.666336 73.958275 20.081268 73.092735 20.500061"/>
                        <path id="path300" fill="#eed435" stroke="none" d="M 123.462616 124.924698 L 191.065445 219.119568 C 191.834229 218.554413 192.614471 217.979095 193.369247 217.402496"/>
                        <path id="path302" fill="#eed435" stroke="none" d="M 123.462616 124.924698 L 78.32663 18.133881 C 77.440742 18.51445 76.559937 18.889938 75.702049 19.289581"/>
                        <path id="path304" fill="#ebcf31" stroke="none" d="M 123.462616 124.924698 L 193.369247 217.402496 C 194.134216 216.832275 194.883942 216.237854 195.632339 215.649811"/>
                        <path id="path306" fill="#ebcf31" stroke="none" d="M 123.462616 124.924698 L 80.971588 17.045593 C 80.093323 17.400726 79.203621 17.765991 78.32663 18.133881"/>
                        <path id="path308" fill="#ebcd2d" stroke="none" d="M 123.462616 124.924698 L 195.632339 215.649811 C 196.380798 215.057938 197.126648 214.439362 197.864914 213.834778"/>
                        <path id="path310" fill="#ebcd2d" stroke="none" d="M 123.462616 124.924698 L 83.659813 16.018402 C 82.757378 16.368439 81.87149 16.710831 80.971588 17.045593"/>
                        <path id="path312" fill="#e8ca2b" stroke="none" d="M 123.462616 124.924698 L 197.864914 213.834778 C 198.594254 213.212341 199.317215 212.596268 200.038925 211.973877"/>
                        <path id="path314" fill="#e8ca2b" stroke="none" d="M 123.462616 124.924698 L 86.364578 15.089233 C 85.454498 15.387085 84.558441 15.705276 83.659813 16.018402"/>
                        <path id="path316" fill="#e8c826" stroke="none" d="M 123.462616 124.924698 L 200.038925 211.973877 C 200.758072 211.32724 201.460663 210.699753 202.163269 210.050613"/>
                        <path id="path318" fill="#e8c826" stroke="none" d="M 123.462616 124.924698 L 89.088463 14.195709 C 88.175827 14.483368 87.274666 14.787598 86.364578 15.089233"/>
                        <path id="path320" fill="#e6c523" stroke="none" d="M 123.462616 124.924698 L 202.163269 210.050613 C 202.864609 209.402756 203.563385 208.742172 204.237991 208.078979"/>
                        <path id="path322" fill="#e6c523" stroke="none" d="M 123.462616 124.924698 L 91.837776 13.386185 C 90.922607 13.634399 90.008713 13.919495 89.088463 14.195709"/>
                        <path id="path324" fill="#e6c523" stroke="none" d="M 123.462616 124.924698 L 204.237991 208.078979 C 204.927856 207.417114 205.608841 206.741241 206.279617 206.050079"/>
                        <path id="path326" fill="#e6c523" stroke="none" d="M 123.462616 124.924698 L 94.603638 12.636475 C 93.683388 12.871964 92.760574 13.130341 91.837776 13.386185"/>
                        <path id="path328" fill="#e6c523" stroke="none" d="M 123.462616 124.924698 L 206.279617 206.050079 C 206.946594 205.371674 207.605927 204.68306 208.262695 203.993195"/>
                        <path id="path330" fill="#e6c523" stroke="none" d="M 123.462616 124.924698 L 97.40007 11.961914 C 96.456894 12.18338 95.532814 12.395935 94.603638 12.636475"/>
                        <path id="path332" fill="#e3c224" stroke="none" d="M 123.462616 124.924698 L 208.262695 203.993195 C 208.90802 203.286774 209.553375 202.567627 210.184677 201.854828"/>
                        <path id="path334" fill="#e3c224" stroke="none" d="M 123.462616 124.924698 L 100.20031 11.357315 C 99.26223 11.548218 98.331787 11.748047 97.40007 11.961914"/>
                        <path id="path336" fill="#e3c222" stroke="none" d="M 123.462616 124.924698 L 210.184677 201.854828 C 210.826187 201.138245 211.45752 200.430527 212.064651 199.697372"/>
                        <path id="path338" fill="#e3c222" stroke="none" d="M 123.462616 124.924698 L 103.020897 10.815063 C 102.072647 10.970337 101.128189 11.143448 100.20031 11.357315"/>
                        <path id="path340" fill="#e3c022" stroke="none" d="M 123.462616 124.924698 L 212.072311 199.697372 C 212.684509 198.948944 213.292923 198.214508 213.88353 197.468643"/>
                        <path id="path342" fill="#e3c022" stroke="none" d="M 123.462616 124.924698 L 105.844063 10.337753 C 104.898331 10.481583 103.958977 10.621597 103.020897 10.815063"/>
                        <path id="path344" fill="#e3c022" stroke="none" d="M 123.462616 124.924698 L 213.88353 197.468643 C 214.490692 196.734207 215.076172 195.974335 215.655304 195.210648"/>
                        <path id="path346" fill="#e3c022" stroke="none" d="M 123.462616 124.924698 L 108.679924 9.932983 C 107.734215 10.066635 106.783409 10.195175 105.844063 10.337753"/>
                        <path id="path348" fill="#e1bf22" stroke="none" d="M 123.462616 124.924698 L 215.655304 195.210648 C 216.22937 194.450775 216.808502 193.680695 217.363464 192.905533"/>
                        <path id="path350" fill="#e1bf22" stroke="none" d="M 123.462616 124.924698 L 111.52726 9.604599 C 110.580261 9.688614 109.632004 9.804413 108.679924 9.932983"/>
                        <path id="path352" fill="#e1bd22" stroke="none" d="M 123.462616 124.924698 L 217.363464 192.905533 C 217.924789 192.141815 218.481018 191.365402 219.023239 190.562225"/>
                        <path id="path354" fill="#e1bd22" stroke="none" d="M 123.462616 124.924698 L 114.38987 9.348785 C 113.430145 9.420013 112.48188 9.518036 111.52726 9.604599"/>
                        <path id="path356" fill="#e1bd22" stroke="none" d="M 123.462616 124.924698 L 219.023239 190.562225 C 219.556549 189.785812 220.084793 188.973755 220.607895 188.182053"/>
                        <path id="path358" fill="#e1bd22" stroke="none" d="M 123.462616 124.924698 L 117.246101 9.156555 C 116.291473 9.211304 115.347046 9.255844 114.38987 9.348785"/>
                        <path id="path360" fill="#debd21" stroke="none" d="M 123.462616 124.924698 L 220.607895 188.182053 C 221.141266 187.377594 221.642761 186.573151 222.150604 185.780182"/>
                        <path id="path362" fill="#debd21" stroke="none" d="M 123.462616 124.924698 L 120.116341 9.040726 C 119.163002 9.056 118.203278 9.096756 117.246101 9.156555"/>
                        <path id="path364" fill="#debb21" stroke="none" d="M 123.462616 124.924698 L 222.150604 185.753479 C 222.647003 184.949036 223.140884 184.122955 223.632187 183.291809"/>
                        <path id="path366" fill="#debb21" stroke="none" d="M 123.462616 124.924698 L 122.982773 9 C 122.023064 9 121.07225 9.013977 120.116341 9.040726"/>
                        <path id="path368" fill="#debb21" stroke="none" d="M 123.462616 124.924698 L 223.632187 183.291809 C 224.098053 182.483566 224.579178 181.64093 225.036102 180.798309"/>
                        <path id="path370" fill="#debb21" stroke="none" d="M 123.462616 124.924698 L 125.856834 9.026749 C 125.047318 9 124.253067 9 123.462616 9 C 123.299706 9 123.149513 9 122.982773 9"/>
                        <path id="path372" fill="#dcb822" stroke="none" d="M 123.462616 124.924698 L 225.036102 180.798309 C 225.495605 179.976074 225.946213 179.132172 226.395493 178.270462"/>
                        <path id="path374" fill="#dcb822" stroke="none" d="M 123.462616 124.924698 L 128.716888 9.096756 C 127.766083 9.056 126.801277 9.040726 125.856834 9.026749"/>
                        <path id="path376" fill="#dcb822" stroke="none" d="M 123.462616 124.924698 L 226.395493 178.270462 C 226.819351 177.427887 227.255936 176.567444 227.677246 175.720978"/>
                        <path id="path378" fill="#dcb822" stroke="none" d="M 123.462616 124.924698 L 131.580765 9.267288 C 130.632507 9.211304 129.672791 9.156555 128.716888 9.096756"/>
                        <path id="path380" fill="#dcb822" stroke="none" d="M 123.462616 124.924698 L 227.677246 175.720978 C 228.085815 174.845276 228.505844 173.989929 228.900452 173.129501"/>
                        <path id="path382" fill="#dcb822" stroke="none" d="M 123.462616 124.924698 L 134.437012 9.518036 C 133.48494 9.420013 132.529037 9.333481 131.580765 9.267288"/>
                        <path id="path384" fill="#dcb620" stroke="none" d="M 123.462616 124.924698 L 228.900452 173.129501 C 229.300095 172.251221 229.684509 171.389511 230.059967 170.492188"/>
                        <path id="path386" fill="#dcb620" stroke="none" d="M 123.462616 124.924698 L 137.286896 9.818436 C 136.346268 9.688614 135.391647 9.604599 134.437012 9.518036"/>
                        <path id="path388" fill="#d9b621" stroke="none" d="M 123.462616 124.924698 L 230.059967 170.492188 C 230.444382 169.617737 230.803329 168.726761 231.149536 167.843414"/>
                        <path id="path390" fill="#d9b621" stroke="none" d="M 123.462616 124.924698 L 140.13295 10.195175 C 139.179596 10.066635 138.23642 9.932983 137.286896 9.818436"/>
                        <path id="path392" fill="#d9b421" stroke="none" d="M 123.462616 124.924698 L 231.149536 167.843414 C 231.504669 166.953705 231.849609 166.077972 232.177994 165.1539"/>
                        <path id="path394" fill="#d9b421" stroke="none" d="M 123.462616 124.924698 L 142.968811 10.621597 C 142.020554 10.481583 141.081207 10.337753 140.13295 10.195175"/>
                        <path id="path396" fill="#d9b421" stroke="none" d="M 123.462616 124.924698 L 232.177994 165.1539 C 232.514008 164.275665 232.83223 163.373215 233.145355 162.474609"/>
                        <path id="path398" fill="#d9b421" stroke="none" d="M 123.462616 124.924698 L 145.78688 11.157471 C 144.855164 10.970337 143.90181 10.815063 142.968811 10.621597"/>
                        <path id="path400" fill="#d7b321" stroke="none" d="M 123.462616 124.924698 L 233.145355 162.474609 C 233.453369 161.570892 233.749939 160.667145 234.047791 159.726532"/>
                        <path id="path402" fill="#d7b321" stroke="none" d="M 123.462616 124.924698 L 148.593475 11.748047 C 147.664307 11.548218 146.721146 11.357315 145.78688 11.157471"/>
                        <path id="path404" fill="#d7b120" stroke="none" d="M 123.462616 124.924698 L 234.047791 159.726532 C 234.325256 158.821564 234.59256 157.916565 234.870041 156.992508"/>
                        <path id="path406" fill="#d7b120" stroke="none" d="M 123.462616 124.924698 L 151.386078 12.395935 C 150.453094 12.18338 149.525177 11.961914 148.593475 11.748047"/>
                        <path id="path408" fill="#d7b120" stroke="none" d="M 123.462616 124.924698 L 234.870041 156.992508 C 235.136063 156.073517 235.381699 155.153259 235.623535 154.229187"/>
                        <path id="path410" fill="#d7b120" stroke="none" d="M 123.462616 124.924698 L 154.145584 13.130341 C 153.231689 12.871964 152.319061 12.636475 151.386078 12.395935"/>
                        <path id="path412" fill="#d7b120" stroke="none" d="M 123.462616 124.924698 L 235.623535 154.229187 C 235.883194 153.308914 236.097061 152.370834 236.314713 151.453125"/>
                        <path id="path414" fill="#d7b120" stroke="none" d="M 123.462616 124.924698 L 156.91272 13.919495 C 155.99884 13.634399 155.070938 13.386185 154.145584 13.130341"/>
                        <path id="path416" fill="#d4af20" stroke="none" d="M 123.462616 124.924698 L 236.314713 151.453125 C 236.534897 150.51886 236.742355 149.606247 236.944778 148.659241"/>
                        <path id="path418" fill="#d4af20" stroke="none" d="M 123.462616 124.924698 L 159.646774 14.787598 C 158.739243 14.496094 157.840622 14.195709 156.91272 13.919495"/>
                        <path id="path420" fill="#d4af20" stroke="none" d="M 123.462616 124.924698 L 236.944778 148.659241 C 237.134399 147.71225 237.316422 146.772888 237.488281 145.828461"/>
                        <path id="path422" fill="#d4af20" stroke="none" d="M 123.462616 124.924698 L 162.350281 15.705276 C 161.460556 15.387085 160.558121 15.089233 159.646774 14.787598"/>
                        <path id="path424" fill="#d4ad21" stroke="none" d="M 123.462616 124.924698 L 237.488281 145.828461 C 237.662628 144.899307 237.82045 143.954865 237.974503 143.019333"/>
                        <path id="path426" fill="#d4ad21" stroke="none" d="M 123.462616 124.924698 L 165.042328 16.710831 C 164.171722 16.368439 163.264175 16.018402 162.350281 15.705276"/>
                        <path id="path428" fill="#d2ac1f" stroke="none" d="M 123.462616 124.924698 L 237.974503 143.019333 C 238.122116 142.064697 238.25325 141.117706 238.38562 140.178345"/>
                        <path id="path430" fill="#d2ac1f" stroke="none" d="M 123.462616 124.924698 L 167.712738 17.780014 C 166.831924 17.400726 165.940964 17.045593 165.042328 16.710831"/>
                        <path id="path432" fill="#d2ac1f" stroke="none" d="M 123.462616 124.924698 L 238.38562 140.178345 C 238.515442 139.216064 238.626175 138.285645 238.727997 137.315735"/>
                        <path id="path434" fill="#d2ac1f" stroke="none" d="M 123.462616 124.924698 L 170.357681 18.889938 C 169.480698 18.51445 168.599915 18.133881 167.712738 17.780014"/>
                        <path id="path436" fill="#d2aa1f" stroke="none" d="M 123.462616 124.924698 L 238.727997 137.315735 C 238.827286 136.3815 238.912552 135.414124 238.994034 134.482407"/>
                        <path id="path438" fill="#d2aa1f" stroke="none" d="M 123.462616 124.924698 L 172.961899 20.081268 C 172.100204 19.666336 171.228287 19.289581 170.357681 18.889938"/>
                        <path id="path440" fill="#d0aa20" stroke="none" d="M 123.462616 124.924698 L 238.994034 134.482407 C 239.071671 133.51889 239.153137 132.551544 239.204056 131.603271"/>
                        <path id="path442" fill="#d0aa20" stroke="none" d="M 123.462616 124.924698 L 175.536865 21.347794 C 174.694229 20.904831 173.824875 20.500061 172.961899 20.081268"/>
                        <path id="path444" fill="#d0aa20" stroke="none" d="M 123.462616 124.924698 L 239.204056 131.603271 C 239.262589 130.649918 239.300781 129.70546 239.336441 128.755936"/>
                        <path id="path446" fill="#d0aa20" stroke="none" d="M 123.462616 124.924698 L 178.088867 22.657486 C 177.236099 22.228577 176.388351 21.781815 175.536865 21.347794"/>
                        <path id="path448" fill="#d0a820" stroke="none" d="M 123.462616 124.924698 L 239.336441 128.755936 C 239.361862 127.801308 239.384766 126.841583 239.389862 125.874252"/>
                        <path id="path450" fill="#d0a820" stroke="none" d="M 123.462616 124.924698 L 180.606537 24.053833 C 179.771591 23.584122 178.939148 23.122101 178.088867 22.657486"/>
                        <path id="path452" fill="#d0a81e" stroke="none" d="M 123.462616 124.924698 L 239.389862 125.874252 C 239.389862 125.55732 239.389862 125.236534 239.389862 124.924698 C 239.389862 124.290855 239.389862 123.658203 239.375885 123.023079"/>
                        <path id="path454" fill="#d0a81e" stroke="none" d="M 123.462616 124.924698 L 183.082214 25.492126 C 182.26886 24.993164 181.431351 24.515854 180.606537 24.053833"/>
                        <path id="path456" fill="#cda51f" stroke="none" d="M 123.462616 124.924698 L 239.375885 123.023079 C 239.361862 122.064636 239.338974 121.092178 239.298248 120.147751"/>
                        <path id="path458" fill="#cda51f" stroke="none" d="M 123.462616 124.924698 L 185.518433 27.008087 C 184.708908 26.486191 183.889175 25.980881 183.082214 25.492126"/>
                        <path id="path460" fill="#cda51f" stroke="none" d="M 123.462616 124.924698 L 239.298248 120.147751 C 239.262589 119.198227 239.204056 118.243591 239.153137 117.281342"/>
                        <path id="path462" fill="#cda51f" stroke="none" d="M 123.462616 124.924698 L 187.916443 28.560913 C 187.127289 28.040314 186.322845 27.507004 185.518433 27.008087"/>
                        <path id="path464" fill="#cda51f" stroke="none" d="M 123.462616 124.924698 L 239.153137 117.281342 C 239.071671 116.330521 238.994034 115.368271 238.912552 114.435257"/>
                        <path id="path466" fill="#cda51f" stroke="none" d="M 123.462616 124.924698 L 190.289001 30.183792 C 189.496033 29.636475 188.709412 29.094223 187.916443 28.560913"/>
                        <path id="path468" fill="#d0aa22" stroke="none" d="M 123.462616 124.924698 L 238.912552 114.435257 C 238.827286 113.466644 238.733093 112.504395 238.621078 111.577759"/>
                        <path id="path470" fill="#d0aa22" stroke="none" d="M 123.462616 124.924698 L 192.596664 31.874115 C 191.834229 31.294983 191.075607 30.732391 190.289001 30.183792"/>
                        <path id="path472" fill="#d4af26" stroke="none" d="M 123.462616 124.924698 L 238.621078 111.577759 C 238.515442 110.61676 238.38562 109.672333 238.240479 108.717697"/>
                        <path id="path474" fill="#d4af26" stroke="none" d="M 123.462616 124.924698 L 194.883942 33.61026 C 194.134216 33.019684 193.369247 32.449432 192.596664 31.874115"/>
                        <path id="path476" fill="#d7b329" stroke="none" d="M 123.462616 124.924698 L 238.240479 108.717697 C 238.122116 107.769455 237.98082 106.84407 237.82045 105.884354"/>
                        <path id="path478" fill="#d7b329" stroke="none" d="M 123.462616 124.924698 L 197.126648 35.397324 C 196.380798 34.790176 195.637436 34.18811 194.883942 33.61026"/>
                        <path id="path480" fill="#dcb82f" stroke="none" d="M 123.462616 124.924698 L 237.82045 105.884354 C 237.662628 104.95137 237.488281 104.010757 237.316422 103.077744"/>
                        <path id="path482" fill="#dcb82f" stroke="none" d="M 123.462616 124.924698 L 199.317215 37.255661 C 198.594254 36.637054 197.864914 36.003174 197.126648 35.397324"/>
                        <path id="path484" fill="#debd32" stroke="none" d="M 123.462616 124.924698 L 237.316422 103.077744 C 237.134399 102.13588 236.944778 101.19014 236.742355 100.257156"/>
                        <path id="path486" fill="#debd32" stroke="none" d="M 123.462616 124.924698 L 201.460663 39.149643 C 200.758072 38.509384 200.038925 37.890808 199.317215 37.255661"/>
                        <path id="path488" fill="#e3c337" stroke="none" d="M 123.462616 124.924698 L 236.742355 100.257156 C 236.534897 99.316513 236.321091 98.397552 236.097061 97.458191"/>
                        <path id="path490" fill="#e3c337" stroke="none" d="M 123.462616 124.924698 L 203.554474 41.108536 C 202.864609 40.44664 202.165833 39.798782 201.460663 39.149643"/>
                        <path id="path492" fill="#e6c73b" stroke="none" d="M 123.462616 124.924698 L 236.097061 97.458191 C 235.883194 96.53923 235.628632 95.607498 235.375351 94.696167"/>
                        <path id="path494" fill="#e6c73b" stroke="none" d="M 123.462616 124.924698 L 205.608841 43.110687 C 204.927856 42.433563 204.24437 41.755112 203.554474 41.108536"/>
                        <path id="path496" fill="#ebcd41" stroke="none" d="M 123.462616 124.924698 L 235.375351 94.696167 C 235.136063 93.761902 234.870041 92.845444 234.59256 91.931534"/>
                        <path id="path498" fill="#ebcd41" stroke="none" d="M 123.462616 124.924698 L 207.605927 45.168869 C 206.946594 44.479004 206.280899 43.801849 205.608841 43.110687"/>
                        <path id="path500" fill="#eed245" stroke="none" d="M 123.462616 124.924698 L 234.59256 91.931534 C 234.325256 91.012543 234.047791 90.108871 233.749939 89.196228"/>
                        <path id="path502" fill="#eed245" stroke="none" d="M 123.462616 124.924698 L 209.553375 47.267776 C 208.90802 46.562622 208.262695 45.860016 207.605927 45.168869"/>
                        <path id="path504" fill="#f3d84b" stroke="none" d="M 123.462616 124.924698 L 233.749939 89.196228 C 233.453369 88.278503 233.145355 87.376083 232.83223 86.46344"/>
                        <path id="path506" fill="#f3d84b" stroke="none" d="M 123.462616 124.924698 L 211.45752 49.434128 C 210.826187 48.71373 210.184677 47.994553 209.553375 47.267776"/>
                        <path id="path508" fill="#f6dd50" stroke="none" d="M 123.462616 124.924698 L 232.83223 86.46344 C 232.514008 85.57373 232.18309 84.682755 231.849609 83.784119"/>
                        <path id="path510" fill="#f6dd50" stroke="none" d="M 123.462616 124.924698 L 213.292923 51.617035 C 212.684509 50.885147 212.072311 50.151993 211.45752 49.434128"/>
                        <path id="path512" fill="#f6dd50" stroke="none" d="M 123.462616 124.924698 L 231.849609 83.784119 C 231.504669 82.881699 231.163559 82.004684 230.7957 81.107361"/>
                        <path id="path514" fill="#f6dd50" stroke="none" d="M 123.462616 124.924698 L 215.071075 53.876312 C 214.490692 53.115158 213.884811 52.380753 213.292923 51.617035"/>
                        <path id="path516" fill="#f0d547" stroke="none" d="M 123.462616 124.924698 L 230.7957 81.107361 C 230.444382 80.231659 230.059967 79.341949 229.684509 78.459854"/>
                        <path id="path518" fill="#f0d547" stroke="none" d="M 123.462616 124.924698 L 216.799591 56.167435 C 216.22937 55.387207 215.655304 54.624771 215.071075 53.876312"/>
                        <path id="path520" fill="#ebcf3f" stroke="none" d="M 123.462616 124.924698 L 229.684509 78.459854 C 229.300095 77.58287 228.910629 76.722427 228.496933 75.860703"/>
                        <path id="path522" fill="#ebcf3f" stroke="none" d="M 123.462616 124.924698 L 218.467041 58.499268 C 217.924789 57.707581 217.363464 56.932404 216.799591 56.167435"/>
                        <path id="path524" fill="#e3c735" stroke="none" d="M 123.462616 124.924698 L 228.496933 75.860703 C 228.085815 74.974838 227.677246 74.128403 227.255936 73.266693"/>
                        <path id="path526" fill="#e3c735" stroke="none" d="M 123.462616 124.924698 L 220.084793 60.874374 C 219.556549 60.066147 219.023239 59.273148 218.467041 58.499268"/>
                        <path id="path528" fill="#dec12e" stroke="none" d="M 123.462616 124.924698 L 227.255936 73.266693 C 226.819351 72.420258 226.395493 71.564896 225.946213 70.718491"/>
                        <path id="path530" fill="#dec12e" stroke="none" d="M 123.462616 124.924698 L 221.642761 63.274963 C 221.141266 62.471786 220.607895 61.667374 220.084793 60.874374"/>
                        <path id="path532" fill="#d9ba26" stroke="none" d="M 123.462616 124.924698 L 225.946213 70.718491 C 225.495605 69.887299 225.036102 69.038345 224.563889 68.198273"/>
                        <path id="path534" fill="#d9ba26" stroke="none" d="M 123.462616 124.924698 L 223.140884 65.727707 C 222.647003 64.887604 222.150604 64.083221 221.642761 63.274963"/>
                        <path id="path536" fill="#d5b520" stroke="none" d="M 123.462616 124.924698 L 224.563889 68.198273 C 224.098053 67.363312 223.632187 66.530869 223.140884 65.727707"/>
                        <path id="path538" fill="#d5b520" stroke="none" d="M 123.462616 124.924698 L 224.563889 68.198273 C 224.098053 67.363312 223.632187 66.530869 223.140884 65.727707"/>
                    </g>
                </g>
            </g>
        </g>
    </g>
</svg>
