<svg width="79" height="79" viewBox="0 0 79 79" fill="none" xmlns="http://www.w3.org/2000/svg">
<g clip-path="url(#clip0_1485_2405)">
<path d="M19.7499 30.3864C25.6232 30.3864 30.3845 25.6251 30.3845 19.7518C30.3845 13.8785 25.6232 9.11719 19.7499 9.11719C13.8765 9.11719 9.11523 13.8785 9.11523 19.7518C9.11523 25.6251 13.8765 30.3864 19.7499 30.3864Z" fill="#5EAE91"/>
<path d="M59.2499 30.3864C65.1232 30.3864 69.8845 25.6251 69.8845 19.7518C69.8845 13.8785 65.1232 9.11719 59.2499 9.11719C53.3765 9.11719 48.6152 13.8785 48.6152 19.7518C48.6152 25.6251 53.3765 30.3864 59.2499 30.3864Z" fill="#5EAE91"/>
<path d="M74.7445 29.5223C77.3989 26.4036 79 22.3577 79 17.9536C79 8.04961 70.9525 0 61.0512 0C53.5936 0 47.1683 4.57269 44.4717 11.084C40.9957 10.6836 38.0253 10.6836 34.5283 11.084C31.8317 4.59376 25.4064 0 17.9488 0C8.04747 0 0 8.04961 0 17.9536C0 22.3577 1.60107 26.4036 4.25547 29.5223C1.47467 34.2635 0 39.5527 0 44.884C0 63.7015 17.7171 79 39.5 79C61.2829 79 79 63.7015 79 44.884C79 39.5316 77.5253 34.2635 74.7445 29.5223ZM61.0512 3.56122C68.9723 3.56122 75.4187 10.0093 75.4187 17.9325C75.4187 21.8941 73.8176 25.4764 71.2264 28.0683C71.1421 28.1526 71.0579 28.2158 70.9736 28.3001C69.0776 30.1123 66.6971 31.4188 64.0216 31.9877C64.0005 31.9877 63.9584 32.0088 63.9373 32.0088C63.5792 32.072 63.2211 32.1352 62.8629 32.1774C62.7365 32.1985 62.6101 32.2195 62.5048 32.2406C62.2099 32.2617 61.8939 32.2827 61.5989 32.2827C61.4093 32.2827 61.2408 32.3038 61.0512 32.3038C53.1301 32.3038 46.6837 25.8557 46.6837 17.9325C46.6837 17.2582 46.7469 16.605 46.8312 15.9517C46.8523 15.8042 46.8733 15.6567 46.8944 15.5303C46.9997 14.877 47.1472 14.2238 47.3579 13.5916C49.2117 7.79674 54.6469 3.56122 61.0512 3.56122ZM17.9488 3.56122C24.3531 3.56122 29.7883 7.77567 31.6421 13.5916C31.8528 14.2238 31.9792 14.877 32.1056 15.5303C32.1267 15.6778 32.1477 15.8253 32.1688 15.9517C32.2531 16.605 32.3163 17.2793 32.3163 17.9325C32.3163 25.8557 25.8699 32.3038 17.9488 32.3038C17.7592 32.3038 17.5907 32.2827 17.4011 32.2827C17.1061 32.2617 16.7901 32.2617 16.4952 32.2406C16.3688 32.2195 16.2424 32.1985 16.1371 32.1774C15.7789 32.1352 15.4208 32.0931 15.0627 32.0088C15.0416 32.0088 14.9995 31.9877 14.9784 31.9877C12.324 31.4188 9.9224 30.1123 8.0264 28.3001C7.94213 28.2158 7.85787 28.1526 7.7736 28.0683C5.1824 25.4764 3.58133 21.873 3.58133 17.9325C3.58133 10.0093 10.0277 3.56122 17.9488 3.56122ZM6.90987 32.0931C7.24693 32.346 7.584 32.5988 7.92107 32.8306C8.89013 33.4839 9.90133 34.0317 10.9547 34.4743C10.9757 34.4743 10.9968 34.4953 11.0179 34.4953C11.5024 34.7061 11.9869 34.8746 12.4925 35.0432C12.5979 35.0854 12.7243 35.1064 12.8507 35.1486C13.2509 35.275 13.6723 35.3804 14.0936 35.4647C14.2621 35.5068 14.4096 35.5279 14.5781 35.57C14.9784 35.6543 15.3787 35.6964 15.7789 35.7597C15.9475 35.7807 16.116 35.8018 16.2845 35.8229C16.8112 35.865 17.3379 35.9072 17.8856 35.9072C17.9067 35.9072 17.9488 35.9072 17.9699 35.9072C27.8712 35.9072 35.9187 27.8576 35.9187 17.9536C35.9187 17.3636 35.8976 16.7735 35.8344 16.2046C35.8133 15.9306 35.7501 15.6567 35.708 15.3828C35.6659 15.1088 35.6448 14.8349 35.5816 14.582C38.3413 14.3081 40.6587 14.3081 43.4184 14.582C43.3763 14.856 43.3341 15.1299 43.292 15.3828C43.2499 15.6567 43.2077 15.9306 43.1656 16.2046C43.1024 16.7946 43.0813 17.3636 43.0813 17.9536C43.0813 27.8576 51.1288 35.9072 61.0301 35.9072C61.0512 35.9072 61.0933 35.9072 61.1144 35.9072C61.6621 35.9072 62.1888 35.865 62.7155 35.8229C62.884 35.8018 63.0525 35.7807 63.2211 35.7597C63.6213 35.7175 64.0216 35.6543 64.4219 35.57C64.5904 35.5489 64.7379 35.5068 64.9064 35.4647C65.3277 35.3804 65.728 35.275 66.1493 35.1486C66.2757 35.1064 66.3811 35.0854 66.5075 35.0432C67.0131 34.8746 67.4976 34.7061 67.9821 34.5164C68.0032 34.5164 68.0243 34.4953 68.0453 34.4953C69.0987 34.0528 70.1099 33.5049 71.0789 32.8517C71.416 32.6199 71.7741 32.367 72.0901 32.1142C74.26 36.1179 75.3976 40.4799 75.3976 44.905C75.3976 51.8378 60.9669 59.2763 39.4789 59.2763C17.9909 59.2763 3.6024 51.8167 3.58133 44.884C3.58133 40.4588 4.71893 36.0758 6.90987 32.0931ZM39.5 75.4177C23.384 75.4177 9.71173 66.3356 5.1824 53.8818C11.9237 59.2763 24.6059 62.8376 39.5 62.8376C54.3941 62.8376 67.0763 59.2763 73.8176 53.8818C69.2883 66.3356 55.616 75.4177 39.5 75.4177Z" fill="#5EAE91"/>
<path d="M30.3847 51.655C32.0627 51.655 33.4231 50.2947 33.4231 48.6166C33.4231 46.9385 32.0627 45.5781 30.3847 45.5781C28.7066 45.5781 27.3462 46.9385 27.3462 48.6166C27.3462 50.2947 28.7066 51.655 30.3847 51.655Z" fill="#5EAE91"/>
<path d="M48.6156 51.655C50.2937 51.655 51.6541 50.2947 51.6541 48.6166C51.6541 46.9385 50.2937 45.5781 48.6156 45.5781C46.9375 45.5781 45.5771 46.9385 45.5771 48.6166C45.5771 50.2947 46.9375 51.655 48.6156 51.655Z" fill="#5EAE91"/>
</g>
<defs>
<clipPath id="clip0_1485_2405">
<rect width="79" height="79" fill="white"/>
</clipPath>
</defs>
</svg>
