<?xml version="1.0" encoding="UTF-8"?><svg id="Layer_1" xmlns="http://www.w3.org/2000/svg" viewBox="0 0 2000 2000"><defs><style>.cls-1,.cls-2,.cls-3{stroke-width:0px;}.cls-2{fill:none;}.cls-3{fill:#fff;}</style></defs><path class="cls-3" d="M1015.35,933.3c-5.48,0-10.96-.99-16.28-2.94l-260.54-95.65c-11.63-4.27-21.23-13.19-26.35-24.45l-159.94-351.95c-6.69-14.7-5.55-30.86,3.12-44.31,8.71-13.52,23.29-21.59,39.03-21.59,5.48,0,10.96.99,16.28,2.94l260.55,95.65c11.62,4.27,21.22,13.18,26.35,24.45l159.94,351.95c6.68,14.7,5.54,30.86-3.12,44.31-8.71,13.52-23.29,21.59-39.03,21.59Z"/><path class="cls-1" d="M594.38,403.67c4.02,0,8.19.71,12.39,2.25l260.54,95.65c8.87,3.26,16.07,9.93,19.98,18.54l159.95,351.95c11.11,24.44-7.76,49.97-31.9,49.97-4.02,0-8.19-.71-12.39-2.25l-260.54-95.65c-8.87-3.26-16.07-9.93-19.98-18.54l-159.95-351.95c-11.11-24.44,7.76-49.97,31.9-49.97M594.39,381.15h0c-19.58,0-37.72,10.01-48.5,26.76-10.62,16.49-12.08,37.08-3.9,55.06l159.95,351.95c6.36,14,18.29,25.07,32.72,30.36l260.54,95.64c6.57,2.41,13.35,3.63,20.16,3.63,19.58,0,37.71-10,48.5-26.75,10.62-16.5,12.08-37.08,3.91-55.07l-159.95-351.95c-6.36-14-18.29-25.07-32.72-30.36l-260.54-95.64c-6.57-2.41-13.35-3.63-20.15-3.63h0Z"/><path class="cls-2" d="M808.67,1407.05l-41.6-24.9c-7.25-4.34-13.12-13.73-13.12-20.97v-41.61c0-1.99-1.61-4.56-3.6-5.75l-16.03-9.59c-1.99-1.19-3.6-.54-3.6,1.44v41.6c0,7.25-5.87,9.6-13.12,5.27l-41.61-24.9c-1.99-1.19-3.6-.54-3.6,1.44v16.03c0,1.99,1.61,4.56,3.6,5.75l41.61,24.9c7.24,4.34,13.12,13.72,13.12,20.97v41.61c0,1.98,1.61,4.56,3.6,5.75l16.03,9.59c1.99,1.19,3.6.54,3.6-1.44v-41.6c0-7.25,5.87-9.6,13.12-5.27l41.6,24.9c1.99,1.19,3.6.54,3.6-1.44v-16.03c0-1.99-1.61-4.56-3.6-5.75Z"/><path class="cls-1" d="M1404.48,1044.23l-216.3-124.88c-104.53-60.35-233.32-60.35-337.85,0l-216.3,124.88c-24.96,14.41-40.33,41.04-40.33,69.86v242.24c0,28.82,15.37,55.45,40.33,69.85l216.3,124.88c104.53,60.35,233.32,60.35,337.85,0l216.3-124.88c24.96-14.41,40.33-41.04,40.33-69.86v-242.24c0-28.82-15.37-55.45-40.33-69.86Z"/><path class="cls-3" d="M1019.25,1607.59c-61.2,0-121.55-16.17-174.56-46.77l-216.3-124.88c-28.35-16.36-45.96-46.87-45.96-79.61v-167.15l18.53,15.64c5.18,4.37,9.97,9.25,14.48,14.81-8.58-11.3-18.16-20.96-28.27-28.17l-4.73-3.37v-74c0-32.74,17.61-63.24,45.96-79.61l216.3-124.88c53-30.6,113.36-46.78,174.56-46.78s121.56,16.17,174.56,46.78l216.3,124.88c28.35,16.37,45.97,46.87,45.97,79.61v242.23c0,32.74-17.62,63.24-45.97,79.61l-216.3,124.88c-53,30.6-113.35,46.77-174.56,46.77ZM742.68,1435.97v-25.33c0-10.84,7.42-18.7,17.65-18.7.4,0,.81.01,1.21.04l-.26-.16c-10.6-6.34-18.6-19.51-18.6-30.63v-38.82l-.69-.42v25.33c0,10.84-7.42,18.7-17.65,18.7-.4,0-.8-.01-1.2-.04l.26.16c10.6,6.34,18.59,19.51,18.59,30.63v38.82l.69.42ZM948.69,1359.5c34.53,0,73.73,20.17,113.62,58.4l4.77-2.76c-44.09-41.87-79.78-59.87-118.15-59.87-3.81,0-7.7.19-11.57.56-42.83,4.11-71.41,35.35-83.48,51.53l3.95,2.38c11.73-15,39.77-44.74,80.6-49.63,3.35-.4,6.8-.6,10.25-.6Z"/><path class="cls-1" d="M1019.25,874.09c58.33,0,116.66,15.09,168.92,45.26l216.3,124.88c24.96,14.41,40.33,41.04,40.33,69.86v242.24c0,28.82-15.37,55.45-40.33,69.86l-216.3,124.88c-52.27,30.18-110.6,45.26-168.92,45.26s-116.66-15.09-168.93-45.26l-216.3-124.88c-24.96-14.41-40.33-41.04-40.33-69.85v-142.91c19.76,16.67,32.54,41.79,45.07,77.91.22.64.67,1.2,1.26,1.55l18.19,10.89c.48.29,1,.42,1.5.42,1.69,0,3.22-1.5,2.89-3.38-8.71-50.61-37.43-96.09-68.91-118.53v-68.19c0-28.82,15.37-55.45,40.33-69.86l216.3-124.88c52.27-30.18,110.6-45.26,168.93-45.26M724.33,1354.72c-1.97,0-4.27-.7-6.73-2.17l-41.61-24.9c-.67-.4-1.3-.6-1.84-.6-1.05,0-1.75.73-1.75,2.04v16.03c0,1.99,1.61,4.56,3.6,5.75l41.61,24.9c7.24,4.34,13.12,13.72,13.12,20.97v41.61c0,1.99,1.61,4.56,3.6,5.75l16.03,9.59c.67.4,1.3.6,1.84.6,1.05,0,1.75-.73,1.75-2.04v-41.6c0-4.79,2.56-7.44,6.39-7.44,1.97,0,4.27.7,6.73,2.17l41.6,24.9c.67.4,1.3.6,1.85.6,1.05,0,1.75-.73,1.75-2.04v-16.03c0-1.99-1.61-4.56-3.6-5.75l-41.6-24.9c-7.24-4.34-13.12-13.73-13.12-20.97v-41.61c0-1.99-1.61-4.56-3.6-5.75l-16.03-9.59c-.67-.4-1.3-.6-1.84-.6-1.05,0-1.75.73-1.75,2.04v41.6c0,4.79-2.56,7.44-6.39,7.44M859.71,1423.31c1.29,0,2.56-.61,3.35-1.74,7.54-10.73,34.82-45.27,76.71-50.28,2.94-.35,5.91-.52,8.92-.52,33.97,0,72.25,22.07,109.67,59,.78.77,1.81,1.17,2.84,1.17.68,0,1.36-.17,1.98-.53l17.83-10.31c2.29-1.33,2.7-4.49.81-6.35-42.68-42.08-84.09-69.73-132.9-69.73-4.16,0-8.37.2-12.64.61-54.42,5.22-87.38,49.43-96.1,62.63-1.3,1.96-.69,4.59,1.32,5.81l16.06,9.66c.67.4,1.41.6,2.14.6M1019.25,851.56c-63.17,0-125.48,16.7-180.19,48.28l-216.3,124.88c-31.83,18.37-51.6,52.62-51.6,89.37v242.24c0,36.75,19.77,70.99,51.59,89.36l216.3,124.88c54.71,31.59,117.02,48.28,180.19,48.28s125.48-16.7,180.19-48.28l216.3-124.88c31.83-18.37,51.6-52.62,51.6-89.37v-242.24c0-36.75-19.77-70.99-51.6-89.37l-216.3-124.88c-54.71-31.59-117.02-48.28-180.19-48.28h0Z"/><path class="cls-3" d="M1378.62,1117.13c-12.09,0-23.6-4.78-32.42-13.45l-197.8-194.7c-8.82-8.68-13.89-20.76-13.9-33.14l-.35-386.59c-.01-13.09,5.15-25.14,14.52-33.91,8.67-8.11,20.43-12.76,32.28-12.76s23.6,4.78,32.42,13.45l197.8,194.7c8.82,8.68,13.89,20.76,13.9,33.14l.35,386.59c.01,13.09-5.15,25.14-14.52,33.91-8.67,8.11-20.43,12.76-32.28,12.76Z"/><path class="cls-1" d="M1180.95,453.85c8.59,0,17.34,3.16,24.51,10.21l197.8,194.69c6.73,6.63,10.53,15.68,10.54,25.13l.35,386.59c.02,21.27-17.38,35.39-35.53,35.39-8.59,0-17.34-3.16-24.51-10.21l-197.8-194.69c-6.73-6.63-10.53-15.68-10.54-25.13l-.35-386.59c-.02-21.27,17.38-35.39,35.53-35.39M1180.95,431.32h0c-14.67,0-29.24,5.76-39.97,15.8-11.68,10.92-18.1,25.89-18.09,42.14l.35,386.59c.01,15.37,6.31,30.38,17.26,41.16l197.8,194.7c10.93,10.76,25.25,16.69,40.32,16.69s29.24-5.76,39.97-15.8c11.68-10.93,18.1-25.89,18.09-42.14l-.35-386.59c-.02-15.38-6.31-30.38-17.26-41.16l-197.8-194.7c-10.93-10.76-25.25-16.69-40.31-16.69h0Z"/></svg>